<?xml version="1.0" standalone="no"?>
<!DOCTYPE svg PUBLIC "-//W3C//DTD SVG 20010904//EN"
 "http://www.w3.org/TR/2001/REC-SVG-20010904/DTD/svg10.dtd">
<svg version="1.0" xmlns="http://www.w3.org/2000/svg"
 width="916.000000pt" height="916.000000pt" viewBox="0 0 916.000000 916.000000"
 preserveAspectRatio="xMidYMid meet">
<metadata>
Created by potrace 1.14, written by Peter Selinger 2001-2017
</metadata>
<g transform="translate(0.000000,916.000000) scale(0.100000,-0.100000)"
fill="#000000" stroke="none">
<path d="M3228 7335 c-2 -2 -50 -5 -108 -9 -138 -8 -170 -13 -264 -42 -129
-39 -277 -127 -342 -204 -12 -14 -34 -38 -48 -55 -27 -31 -100 -165 -89 -165
3 0 1 -6 -5 -12 -19 -23 -44 -172 -47 -279 -4 -139 13 -250 69 -444 1 -5 9
-30 16 -55 7 -25 14 -50 16 -57 1 -7 11 -41 23 -75 11 -35 22 -72 24 -83 1
-11 5 -24 9 -30 3 -5 9 -23 12 -40 3 -16 9 -41 12 -55 11 -52 12 -111 2 -138
-20 -53 -133 -115 -233 -128 -11 -1 -33 -5 -50 -9 -16 -3 -43 -8 -60 -11 -16
-2 -50 -9 -75 -15 -72 -15 -93 -20 -125 -26 -51 -9 -265 -82 -275 -94 -3 -3
-30 -19 -60 -35 -110 -58 -290 -267 -357 -414 -17 -38 -45 -112 -48 -130 -1
-3 -4 -18 -8 -35 -7 -32 -12 -70 -24 -175 -9 -87 -9 -418 1 -500 4 -36 9 -78
11 -95 1 -16 7 -55 14 -85 6 -30 13 -68 16 -85 3 -16 7 -41 10 -55 3 -14 10
-47 16 -75 11 -51 16 -75 23 -110 3 -11 12 -49 21 -85 9 -36 18 -76 21 -90 5
-22 20 -86 69 -295 8 -33 17 -71 19 -85 2 -14 14 -68 26 -120 20 -88 35 -159
46 -220 3 -14 13 -68 24 -120 11 -52 22 -111 25 -130 3 -19 8 -48 12 -65 3
-16 7 -37 8 -45 3 -15 6 -33 26 -140 5 -30 12 -68 14 -85 2 -16 6 -43 9 -60 3
-16 8 -50 11 -73 3 -24 8 -49 13 -55 7 -11 92 -17 92 -7 0 3 15 5 33 5 35 0
34 -6 22 95 -4 30 -8 69 -10 85 -2 17 -6 48 -9 70 -4 22 -11 72 -17 110 -6 39
-13 79 -15 90 -2 11 -7 34 -9 50 -3 17 -13 68 -22 115 -9 47 -17 94 -18 105
-6 38 -16 90 -21 108 -3 11 -7 29 -9 40 -4 31 -80 399 -89 432 -2 6 -6 28 -10
50 -5 22 -28 120 -52 219 -25 98 -43 181 -40 184 13 13 135 -100 137 -126 1
-9 3 -26 4 -37 2 -11 5 -36 8 -56 12 -83 151 -325 252 -435 5 -7 19 -25 30
-40 17 -24 34 -45 100 -120 164 -188 245 -268 320 -314 34 -21 52 -25 120 -24
65 0 87 5 120 24 47 28 108 76 163 128 105 100 312 290 372 342 233 200 406
379 576 592 7 10 52 75 99 145 47 71 89 133 93 138 5 6 55 87 111 180 175 287
256 402 373 528 l45 48 114 -5 c227 -10 277 -35 284 -143 2 -32 6 -96 10 -143
6 -95 14 -242 20 -370 17 -359 28 -540 40 -650 2 -25 7 -70 10 -100 16 -162
38 -302 59 -375 2 -5 6 -23 10 -40 55 -217 191 -423 355 -534 65 -45 130 -64
233 -67 98 -3 184 15 223 48 31 25 95 92 95 98 0 4 11 20 25 36 14 16 25 35
25 42 0 6 3 12 8 12 8 0 47 100 56 145 4 17 10 44 13 60 4 17 7 149 7 295 0
263 -1 281 -39 430 -17 68 -160 438 -230 595 -7 17 -25 62 -39 100 -15 39 -30
79 -36 90 -12 27 -95 259 -110 310 -84 284 -76 295 320 476 52 24 97 46 100
50 3 3 21 14 40 24 40 20 105 69 138 103 24 25 35 25 152 7 143 -23 579 -28
618 -6 30 16 43 51 43 118 1 29 5 53 9 53 14 0 46 -62 75 -145 35 -104 61
-142 100 -149 45 -8 692 7 701 16 1 2 4 17 7 34 8 50 25 74 53 74 56 0 79 34
92 135 9 68 9 691 0 737 -4 20 -23 72 -43 116 -19 44 -35 89 -35 99 -1 44 -4
44 -261 38 -134 -3 -266 -8 -294 -10 -90 -10 -114 -13 -124 -19 -17 -11 -81
-16 -216 -20 -112 -2 -135 -6 -166 -25 -63 -38 -35 -36 -1248 -56 -162 -3
-296 -7 -299 -9 -2 -3 -6 -38 -8 -79 l-5 -74 133 3 c73 1 277 6 453 9 698 15
821 13 847 -13 11 -11 27 -82 33 -152 3 -25 7 -66 9 -91 20 -194 28 -397 15
-420 -18 -35 -88 -42 -254 -24 -38 3 -72 8 -75 10 -3 2 -32 6 -65 9 -33 3 -71
8 -85 10 -14 3 -45 7 -69 10 -48 6 -54 9 -57 32 -6 39 -69 211 -94 257 -57
104 -206 265 -255 275 -8 2 -15 7 -15 11 0 4 -30 18 -67 32 -58 20 -86 24
-188 24 -113 -1 -124 -2 -180 -30 -55 -28 -73 -46 -138 -139 -13 -19 -18 -17
-93 44 -111 90 -110 90 -93 101 8 5 20 7 27 4 7 -2 22 5 33 16 20 20 21 29 16
163 -6 146 -8 160 -33 261 -30 122 -54 144 -154 140 -101 -4 -271 -41 -332
-72 -15 -7 -30 -13 -33 -13 -3 0 -6 0 -7 -1 -2 0 -15 -3 -30 -5 -24 -4 -28 -1
-29 18 0 13 -2 68 -4 123 -4 122 -27 236 -55 275 -12 17 -24 30 -28 31 -4 0
-16 3 -27 5 -11 3 -35 5 -52 5 l-33 0 0 93 c0 137 -5 153 -70 217 -57 57 -186
129 -248 140 -4 0 -14 5 -23 10 -9 4 -27 10 -40 13 -13 3 -42 10 -64 15 -46
11 -103 20 -160 27 -22 2 -58 6 -80 9 -40 6 -363 14 -367 10z m361 -179 c232
-43 419 -116 484 -188 42 -48 45 -64 17 -117 -47 -93 -151 -168 -413 -297
-254 -126 -254 -126 -304 -164 -75 -57 -88 -80 -89 -166 -1 -73 11 -143 37
-220 7 -22 13 -43 14 -49 0 -5 -27 -36 -59 -70 -64 -65 -121 -147 -132 -189
-3 -14 -9 -26 -13 -26 -3 0 -33 25 -66 56 -88 81 -122 94 -236 90 -52 -1 -102
-6 -112 -10 -14 -7 -21 2 -41 45 -19 45 -98 275 -111 329 -3 8 -14 49 -25 90
-60 216 -66 305 -26 420 94 268 315 436 626 476 25 4 47 8 49 10 10 9 327 -6
400 -20z m648 -826 c34 -69 66 -144 73 -168 12 -45 22 -53 98 -72 23 -6 42
-16 42 -22 0 -14 -89 -98 -104 -98 -6 0 -23 -11 -38 -25 -15 -14 -29 -25 -32
-25 -10 0 -72 -68 -103 -114 -59 -86 -76 -194 -58 -366 4 -41 8 -84 9 -95 4
-36 -22 -72 -78 -109 -30 -20 -57 -36 -59 -36 -5 0 -130 -72 -161 -92 -42 -29
-162 -123 -196 -154 -108 -101 -132 -121 -158 -136 -28 -17 -28 -16 -77 31
-28 26 -68 60 -90 76 -22 16 -44 34 -50 40 -5 6 -26 22 -45 35 -19 13 -42 30
-50 37 -33 30 -93 73 -101 73 -14 0 -10 18 6 32 78 64 95 97 95 177 0 20 3 46
6 58 6 21 10 23 76 23 23 0 28 5 35 37 4 21 6 43 5 50 -5 25 43 141 78 188 20
28 62 72 93 99 31 27 55 52 53 55 -2 3 -7 42 -10 86 -4 44 -9 114 -13 155 -10
127 -8 140 21 165 15 13 126 73 248 135 122 62 257 134 302 160 l81 48 21 -62
c11 -33 48 -117 81 -186z m643 -80 c10 -5 21 -22 24 -37 4 -16 9 -39 12 -53
13 -61 16 -128 5 -134 -9 -6 -91 -22 -156 -31 -11 -1 -23 -3 -27 -4 -5 0 -8
-47 -8 -103 l1 -103 56 -40 c30 -22 63 -44 71 -50 9 -5 21 -14 28 -20 6 -5 28
-23 49 -40 66 -53 151 -139 180 -182 22 -34 26 -50 22 -79 -15 -91 -99 -207
-198 -274 -32 -22 -62 -40 -68 -40 -5 0 -11 -4 -13 -8 -1 -4 -57 -35 -123 -67
-66 -33 -174 -89 -240 -124 -241 -129 -253 -134 -385 -146 -105 -10 -154 -18
-226 -36 -43 -11 -90 -22 -103 -25 -14 -3 -29 -8 -34 -11 -25 -15 -153 -41
-161 -33 -9 9 120 144 209 218 70 58 199 152 228 165 15 6 27 15 27 19 0 5 5
8 11 8 16 0 177 100 203 127 13 13 26 38 29 56 6 44 1 191 -9 252 -12 77 -8
131 15 177 33 69 68 102 228 217 57 40 114 86 128 102 24 29 25 34 20 139 -4
96 -3 109 13 115 61 27 140 54 155 54 10 1 27 -3 37 -9z m2730 -215 c5 -3 2
-25 -5 -50 -30 -97 -42 -231 -39 -418 3 -164 17 -267 55 -405 14 -51 6 -61
-51 -63 -19 -1 -48 -2 -65 -4 -167 -14 -205 -15 -206 -3 -1 7 -3 22 -5 33 -15
90 -19 169 -18 360 1 200 5 270 19 375 13 92 29 135 53 146 49 21 241 42 262
29z m-626 -87 c-7 -64 -46 -208 -55 -202 -5 3 -8 8 -5 12 2 4 7 40 10 81 7 74
27 141 44 141 5 0 8 -15 6 -32z m828 -185 c3 -15 3 -284 -1 -385 -1 -31 -16
-39 -18 -10 -1 9 -6 54 -11 99 -8 88 -7 250 2 289 7 28 22 31 28 7z m-2209
-94 c37 -20 75 -65 105 -126 42 -84 81 -196 88 -256 4 -29 17 -76 30 -106 13
-29 24 -59 24 -65 0 -7 -24 -23 -52 -37 -185 -86 -345 -166 -356 -176 -7 -7
-16 -13 -20 -13 -15 -1 -80 -68 -98 -100 -15 -29 -19 -57 -19 -160 0 -69 3
-145 7 -170 7 -50 42 -183 59 -227 6 -15 12 -35 14 -43 2 -8 24 -69 50 -135
25 -66 48 -129 50 -139 3 -11 9 -24 15 -30 5 -5 10 -16 10 -23 0 -8 9 -33 20
-55 11 -23 20 -45 20 -49 0 -3 8 -24 17 -45 9 -22 17 -41 17 -44 1 -3 16 -41
35 -85 18 -44 37 -89 41 -100 4 -11 15 -36 23 -55 41 -95 112 -322 116 -370 1
-8 5 -44 9 -80 25 -199 -33 -442 -130 -553 -79 -89 -114 -119 -147 -124 -14
-2 -80 24 -91 36 -3 4 -30 26 -60 51 -91 75 -152 151 -213 268 -39 75 -90 218
-106 302 -6 30 -13 65 -16 78 -3 12 -7 30 -9 40 -27 126 -55 459 -71 822 -14
334 -24 533 -30 570 -21 152 -37 190 -96 218 -24 12 -66 24 -94 28 -27 3 -51
7 -53 9 -6 5 81 57 193 115 66 34 132 71 146 81 15 10 30 19 33 19 18 0 153
128 178 169 31 51 40 54 65 23 19 -25 27 -27 87 -26 36 0 68 3 71 6 3 2 7 45
10 94 19 360 26 396 77 451 25 27 23 26 51 12z m-2632 -222 c26 -48 27 -104 2
-122 -57 -42 -114 46 -76 119 26 51 48 52 74 3z m-311 -128 c17 -34 53 -96 81
-137 27 -41 49 -77 49 -80 0 -2 10 -13 22 -23 39 -34 10 -32 -69 6 -120 58
-278 109 -376 121 -81 11 -263 12 -322 3 -73 -11 -173 -43 -238 -76 -55 -27
-78 -24 -25 3 71 38 148 73 148 67 0 -3 6 -1 13 5 16 13 256 72 317 77 14 1
34 5 45 8 11 3 36 8 55 11 19 3 50 10 68 15 17 5 32 7 32 5 0 -3 6 -2 13 3 6
4 18 9 25 10 25 6 38 10 72 26 19 9 40 16 47 17 6 0 26 -28 43 -61z m-355
-274 c42 -9 60 -13 60 -15 0 -1 8 -3 18 -5 10 -2 26 -7 35 -11 9 -4 19 -8 22
-8 38 -8 247 -109 360 -173 19 -12 64 -37 100 -58 159 -91 326 -166 383 -172
31 -3 57 -10 57 -14 0 -5 -4 -9 -8 -9 -5 0 -16 -18 -26 -40 -24 -54 -90 -120
-165 -164 -34 -20 -66 -36 -72 -36 -5 0 -9 -4 -9 -9 0 -5 -8 -11 -17 -14 -32
-10 -136 -73 -175 -106 -28 -24 -40 -42 -44 -72 -6 -37 -16 -52 -39 -55 -5 -1
-46 -5 -90 -9 -44 -4 -83 -8 -86 -10 -3 -2 -28 -7 -55 -11 -27 -3 -51 -8 -54
-9 -3 -2 -24 -6 -46 -9 -49 -8 -57 -9 -174 -36 -52 -12 -106 -24 -120 -26 -47
-9 -225 -67 -265 -87 -57 -28 -142 -88 -200 -141 l-50 -46 -22 28 c-36 44 -84
142 -104 212 -37 126 -40 328 -8 455 5 22 12 49 14 60 10 44 50 151 61 165 7
8 14 22 16 30 6 31 100 159 151 206 154 143 389 224 552 189z m1738 -522 c-4
-10 -24 -47 -45 -82 -21 -34 -38 -67 -38 -72 0 -5 -4 -9 -9 -9 -5 0 -11 -8
-15 -17 -3 -10 -14 -31 -25 -48 -45 -72 -100 -160 -150 -242 -73 -118 -194
-302 -220 -333 -11 -14 -24 -29 -29 -35 -168 -204 -441 -481 -818 -830 -59
-55 -126 -117 -147 -137 -22 -21 -43 -38 -47 -38 -4 0 -10 -6 -13 -13 -2 -6
-22 -18 -43 -26 l-38 -14 -80 85 c-113 118 -201 219 -340 392 -49 62 -176 250
-176 261 0 4 -8 19 -19 33 -10 15 -21 39 -24 53 -8 32 11 47 93 74 30 10 107
42 170 70 129 59 233 103 460 195 196 80 299 130 331 162 22 22 35 26 105 27
182 5 233 27 343 150 121 137 146 157 263 214 109 53 270 124 303 133 6 1 37
12 70 24 33 12 68 24 79 26 10 2 21 6 24 9 3 3 13 5 23 5 13 0 17 -5 12 -17z"/>
</g>
</svg>
