<svg
  class="img-fluid"
  id="outputsvg"
  xmlns="http://www.w3.org/2000/svg"
  style="transform: none; transform-origin: 50% 50%; cursor: move"
  width="458"
  height="320"
  viewBox="0 0 4580 3200"
>
  <g id="l4PxM614W4nFxR8GoPpnydN" fill="#00a8cc" style="transform: none">
    <g>
      <path
        id="p1JUn9u4X"
        d="M805 2923 c-21 -146 -82 -457 -130 -653 -75 -310 -88 -402 -82 -569 5 -152 22 -218 81 -306 95 -143 189 -192 454 -235 90 -15 132 -45 132 -95 0 -19 -18 -89 -39 -157 -53 -167 -65 -234 -58 -328 11 -165 98 -276 258 -331 49 -16 96 -23 199 -26 224 -8 401 31 481 106 37 36 39 41 39 99 l0 62 30 0 c52 0 67 50 70 231 0 4 26 -4 58 -16 61 -25 168 -41 201 -30 25 8 51 115 51 214 0 69 0 70 -28 73 -27 3 -26 4 25 45 l52 42 20 -35 c25 -43 73 -64 142 -64 76 0 125 18 180 68 58 52 95 111 118 190 l17 57 120 16 c125 18 172 16 181 -8 9 -22 -15 -301 -27 -324 -11 -20 -14 -20 -366 -13 l-355 7 3 -39 3 -39 377 -6 c341 -5 379 -7 397 -23 15 -14 35 -17 100 -15 47 1 86 -3 94 -9 8 -7 75 -12 172 -14 l160 -3 5 25 c3 14 15 43 26 65 17 35 19 62 19 231 0 208 -8 244 -51 244 -17 0 -23 7 -26 28 l-3 27 -167 7 c-98 5 -178 4 -192 -2 -18 -6 -28 -23 -40 -62 -8 -29 -22 -62 -30 -73 -15 -19 -15 -18 -16 22 0 31 -5 45 -19 53 -26 13 -213 13 -302 -1 l-70 -11 -37 33 c-20 18 -75 50 -122 71 -121 55 -129 59 -157 87 -21 22 -24 31 -18 70 9 59 60 202 138 391 104 249 112 281 112 450 0 161 -12 216 -66 290 -43 59 -82 80 -153 80 -77 0 -132 -26 -192 -93 -116 -130 -147 -263 -169 -745 -8 -169 -17 -317 -20 -329 -9 -29 -51 -45 -130 -46 l-67 -2 -52 56 c-28 31 -80 106 -116 165 -172 290 -257 397 -442 560 -68 59 -159 143 -203 185 -82 80 -115 99 -166 99 -47 0 -81 -23 -159 -107 -153 -166 -250 -312 -250 -377 0 -36 -6 -46 -41 -75 -31 -26 -40 -29 -35 -15 43 139 146 652 162 809 l7 65 -41 0 -41 0 -6 -47z m2011 -220 c54 -53 85 -129 91 -221 6 -96 -11 -174 -73 -325 -162 -397 -184 -467 -184 -576 0 -102 17 -121 158 -187 64 -31 118 -57 120 -58 1 -2 -4 -16 -13 -32 -8 -16 -15 -36 -15 -45 0 -42 -44 -154 -70 -181 -35 -35 -45 -35 -66 -2 -13 19 -19 57 -23 142 l-6 117 -35 3 c-24 3 -38 -2 -48 -15 -13 -17 -14 -17 -24 2 -30 52 -89 98 -193 149 -78 39 -102 55 -84 55 14 1 41 6 59 12 53 19 59 48 70 347 17 433 46 595 133 724 40 60 121 128 153 128 7 0 30 -16 50 -37z m-1455 -253 c270 -252 390 -381 463 -496 130 -207 204 -329 201 -332 -8 -9 -128 34 -226 80 -90 42 -112 57 -139 95 -18 24 -51 58 -73 74 -35 25 -49 29 -108 29 -53 0 -68 3 -71 16 -2 10 -66 40 -173 83 -93 37 -192 79 -220 93 -27 14 -69 31 -92 38 -24 7 -43 17 -43 22 0 19 45 96 96 164 68 90 209 251 226 257 19 7 24 3 159 -123z m-424 -499 c21 -10 63 -26 93 -35 87 -25 299 -66 341 -66 34 0 39 -3 39 -23 0 -31 19 -47 124 -104 70 -38 93 -57 113 -90 l25 -43 -27 0 c-30 0 -93 -30 -250 -119 -136 -78 -242 -115 -305 -108 -75 9 -156 45 -209 93 -142 127 -183 411 -80 555 l21 30 38 -35 c22 -19 56 -44 77 -55z m1103 -417 c74 -5 94 -11 150 -44 36 -21 113 -61 172 -89 62 -30 123 -67 144 -88 37 -37 64 -88 64 -121 0 -27 -54 -85 -135 -145 l-70 -52 0 -50 0 -50 53 -8 c59 -10 55 1 36 -97 -7 -35 -24 -38 -82 -15 l-38 16 4 58 c5 65 12 56 -114 145 -74 53 -97 98 -83 166 14 76 11 138 -9 158 -9 9 -58 40 -107 67 -83 46 -235 177 -235 203 0 4 37 -4 83 -19 49 -17 117 -31 167 -35z m-85 -223 c118 -66 112 -57 102 -148 -15 -130 15 -194 124 -263 55 -36 59 -53 11 -58 -25 -3 -32 -9 -38 -34 -3 -18 -21 -59 -39 -92 -18 -34 -36 -74 -39 -89 l-7 -29 -27 19 c-15 10 -90 50 -167 88 -136 68 -140 71 -137 100 1 17 5 63 8 102 l6 73 -40 36 c-44 39 -72 96 -72 144 0 27 -3 30 -30 30 -29 0 -30 2 -30 44 0 37 -5 48 -29 69 l-29 24 95 73 c52 39 97 78 100 86 4 10 28 -7 82 -58 44 -42 110 -92 156 -117z m-549 40 c-21 -23 -86 -130 -86 -142 0 -13 -17 -11 -48 5 -15 8 -83 24 -152 35 -81 14 -147 32 -187 51 -35 16 -63 32 -63 35 0 3 17 -3 38 -14 120 -61 297 -53 447 19 73 35 72 34 51 11z m2411 -15 c1 0 -5 -26 -14 -56 -30 -107 -28 -313 3 -394 7 -18 3 -19 -61 -13 -48 3 -72 10 -81 22 -25 33 -38 305 -21 408 l8 48 82 -7 c45 -3 83 -7 84 -8z m-2322 -145 c-11 -42 -25 -54 -41 -34 -19 25 -17 60 3 72 26 14 46 -6 38 -38z m2410 -189 c-3 -3 -7 -3 -10 0 -10 9 -10 143 0 193 9 46 10 40 13 -69 1 -65 0 -121 -3 -124z m-2274 -48 l39 -40 -15 -43 c-8 -24 -15 -65 -15 -90 0 -63 24 -85 172 -154 141 -67 199 -105 228 -152 20 -33 21 -37 6 -60 -38 -58 -229 -115 -385 -115 -184 1 -313 65 -379 188 -44 82 -49 129 -23 227 37 142 88 289 95 277 4 -7 32 -12 67 -12 56 0 63 3 102 39 l42 39 13 -31 c7 -18 31 -50 53 -73z m1857 -11 c5 -24 6 -43 2 -43 -12 0 -20 27 -25 88 -5 60 2 46 23 -45z"
      ></path>
    </g>
  </g>
</svg>
