<svg
  viewBox="0 0 4580 3200"
>
  <g
    id="l7ewU5xh62WtkUzn4bMglqp"
    fill="none"
    stroke="#00a8cc"
    stroke-width="10"
    style="transform: none"
  >
    <g>
      <path
        id="pcIZPuGRQ"
        d="M846 2941 c-4 -5 -18 -79 -31 -163 -35 -214 -49 -282 -110 -538 -69 -287 -85 -380 -85 -499 0 -194 66 -341 198 -440 68 -52 139 -77 276 -100 129 -22 154 -31 181 -61 31 -34 24 -113 -23 -260 -74 -230 -77 -304 -22 -417 76 -155 235 -223 485 -210 242 13 395 85 395 185 0 82 -52 129 -256 232 -81 41 -153 83 -158 92 -7 12 -6 30 3 60 7 24 15 62 18 84 4 38 2 44 -40 85 -43 43 -67 94 -67 147 0 29 -26 29 -58 0 l-23 -23 10 28 c31 82 -1 147 -74 147 l-38 0 24 26 c13 15 70 62 127 106 101 79 129 109 117 128 -16 25 -69 6 -207 -74 -251 -144 -350 -171 -489 -130 -150 45 -237 147 -274 321 -35 165 3 358 81 409 25 17 26 16 67 -26 54 -54 115 -85 230 -115 117 -31 267 -58 275 -51 10 11 -11 23 -113 61 -55 21 -164 67 -242 102 -79 34 -149 63 -157 63 -8 0 -17 7 -20 16 -19 49 53 170 206 349 106 124 138 150 175 140 13 -3 73 -52 133 -108 59 -56 168 -159 242 -228 147 -139 207 -217 346 -447 48 -80 109 -169 136 -199 l48 -53 -49 0 c-75 0 -188 33 -311 90 -92 44 -115 59 -142 96 -58 82 -147 128 -187 99 -17 -13 -17 -15 5 -38 13 -14 63 -46 112 -72 87 -46 88 -47 148 -143 76 -122 158 -202 285 -276 54 -32 101 -64 103 -71 3 -7 1 -46 -5 -87 -17 -126 7 -172 135 -259 41 -27 74 -54 74 -59 0 -15 -57 -50 -83 -50 -21 0 -27 -6 -32 -33 -4 -17 -20 -52 -35 -77 -60 -96 -63 -180 -5 -180 41 0 58 39 59 138 2 126 4 127 121 79 69 -28 134 -40 154 -28 15 10 53 185 44 207 -3 9 -20 14 -43 14 -41 0 -70 8 -70 19 0 4 35 32 78 64 42 31 88 73 101 93 l25 36 17 -54 c10 -29 29 -63 43 -75 108 -92 295 26 356 225 l18 57 143 19 c118 15 152 16 187 7 40 -11 43 -14 38 -39 -3 -15 -8 -79 -11 -142 -6 -132 -14 -197 -27 -223 -9 -18 -27 -18 -366 -12 -247 5 -354 4 -347 -3 6 -7 136 -11 363 -13 377 -4 371 -4 372 44 0 28 17 11 24 -24 3 -18 11 -38 17 -46 12 -14 66 -17 117 -7 l30 6 -32 61 c-28 55 -31 69 -31 151 0 127 12 197 38 230 l22 28 1 -164 c2 -181 16 -294 42 -320 13 -13 46 -18 151 -24 132 -7 133 -7 127 14 -5 14 0 31 14 50 31 42 40 92 39 237 0 153 -12 200 -49 200 -20 0 -26 6 -30 30 l-5 30 -140 6 c-77 4 -150 3 -162 -2 -14 -5 -26 -23 -34 -51 -12 -41 -108 -232 -114 -226 -2 2 0 44 4 94 7 110 6 120 -22 128 -40 11 -171 6 -266 -9 l-94 -16 -36 35 c-20 19 -87 59 -152 89 -132 62 -159 88 -159 152 0 64 43 199 130 410 114 277 125 317 125 455 0 85 -5 128 -18 167 -35 99 -108 173 -171 173 -72 0 -179 -87 -229 -187 -61 -120 -83 -253 -97 -588 -15 -362 -17 -383 -44 -410 -19 -19 -39 -24 -110 -30 -61 -5 -95 -4 -117 5 -43 18 -107 96 -180 219 -157 266 -259 398 -409 529 -47 41 -137 123 -200 182 -137 128 -151 136 -191 120 -57 -24 -281 -286 -335 -392 -13 -26 -24 -63 -24 -83 0 -29 -8 -43 -44 -78 -64 -62 -89 -135 -90 -267 -2 -278 124 -455 351 -493 121 -20 219 11 447 143 187 108 244 108 103 0 -171 -131 -247 -229 -255 -330 -4 -50 -1 -60 23 -88 46 -55 91 -41 182 58 l41 45 7 -40 c10 -55 21 -73 73 -127 l46 -47 -24 -76 c-33 -106 -29 -111 139 -192 74 -35 153 -77 177 -94 87 -59 110 -147 54 -199 -88 -82 -386 -126 -570 -84 -179 40 -292 188 -277 363 3 37 24 125 47 196 49 151 62 260 37 298 -23 36 -69 53 -197 75 -201 34 -295 87 -376 210 -67 101 -79 153 -79 327 1 161 2 164 75 470 58 242 83 364 115 566 23 145 25 174 11 150z m1998 -208 c69 -69 96 -149 96 -284 0 -114 -22 -194 -119 -427 -95 -229 -130 -335 -137 -417 -8 -93 10 -113 159 -184 67 -32 133 -67 146 -78 26 -21 22 -43 -8 -43 -28 0 -41 -22 -56 -94 -27 -130 -67 -186 -136 -190 -55 -2 -71 33 -78 171 -4 69 -10 118 -16 117 -5 0 -23 -27 -39 -60 l-29 -59 -8 43 c-18 100 -66 143 -264 242 -138 68 -148 75 -120 81 17 4 48 7 71 8 68 2 104 20 120 58 11 24 18 109 24 291 11 300 32 486 66 594 48 150 157 268 248 268 36 0 49 -6 80 -37z m-1854 -691 c41 -19 122 -54 180 -78 58 -24 96 -43 85 -44 -39 0 -226 50 -274 74 -54 28 -111 73 -111 88 0 12 28 3 120 -40z m536 -203 c43 -20 106 -89 83 -89 -23 0 -149 81 -149 95 0 20 16 19 66 -6z m257 -193 c110 -50 201 -76 292 -83 69 -4 89 -10 145 -43 36 -21 112 -61 170 -88 150 -72 208 -136 212 -235 3 -58 -27 -97 -130 -175 -98 -73 -101 -93 -19 -106 65 -10 63 -5 38 -116 l-16 -75 -50 3 c-45 3 -165 47 -165 60 0 4 14 21 32 39 31 32 31 33 13 53 -11 12 -50 41 -87 66 -106 71 -128 119 -107 246 15 95 21 86 -113 162 -133 74 -206 147 -282 279 -16 26 -24 47 -18 47 5 0 43 -15 85 -34z m1797 -291 c-7 -9 -15 -13 -18 -10 -3 2 1 11 8 20 7 9 15 13 18 10 3 -2 -1 -11 -8 -20z m279 9 c2 -2 -7 -43 -19 -91 -45 -171 -37 -312 20 -392 16 -22 26 -42 22 -44 -15 -7 -233 10 -242 19 -40 40 -51 456 -14 516 6 9 223 1 233 -8z m72 -81 c15 -40 7 -330 -11 -365 -27 -56 -43 -25 -61 110 -21 168 32 357 72 255z m-916 -30 c-11 -60 -82 -183 -106 -183 -4 0 -2 15 6 33 7 17 19 60 25 95 14 68 30 92 62 92 18 0 19 -4 13 -37z m-1495 2 c20 -24 7 -111 -20 -140 -19 -20 -26 -22 -46 -13 -26 12 -54 64 -54 102 0 14 9 35 20 46 24 24 82 27 100 5z m1198 -217 c11 -21 18 -38 15 -38 -17 0 -61 33 -73 56 -20 37 -17 120 5 169 l18 40 8 -94 c5 -58 16 -109 27 -133z m789 65 c-1 -103 1 -124 21 -167 12 -27 22 -52 22 -57 0 -14 -86 -10 -98 4 -16 19 -31 148 -20 177 14 37 70 160 74 160 2 0 2 -53 1 -117z m-2117 57 c0 -33 48 -80 83 -80 l32 -1 -28 -24 c-38 -34 -81 -33 -104 2 -18 27 -23 84 -10 116 8 22 27 13 27 -13z m800 -504 c0 -60 -15 -112 -35 -120 -22 -8 -38 21 -31 56 8 38 47 118 58 118 4 0 8 -24 8 -54z"
      ></path>
    </g>
  </g>
</svg>
